<?xml version="1.0" encoding="UTF-8"?><svg id="Layer_1" xmlns="http://www.w3.org/2000/svg" viewBox="0 0 652.36 377.66"><defs><style>.cls-1{fill:#005ca7;}.cls-2{fill:#db090a;}.cls-3{fill:#fff;}</style></defs><path class="cls-1" d="M120.5,0h0c22.6,12.65,45.17,25.36,67.75,38.02,3.23,1.82,6.52,3.56,9.54,5.73,7.59,5.42,13.56,13.09,16.89,21.81,3.98,10.33,4.22,22.05.64,32.52-3.47,10.31-10.59,19.32-19.8,25.1-8.82,5.61-19.52,8.19-29.92,7.16-1.3-.18-2.6.04-3.85.43-12.24,3.66-25.93,2.09-37.05-4.2-10.98-6.09-19.38-16.63-22.83-28.7-1.3-4.47-1.91-9.13-1.9-13.78,0-27.31,0-54.63,0-81.94,6.85,3.59,13.67,7.24,20.52,10.83,0-4.32,0-8.65,0-12.98ZM107.33,14.13c-.01,22.63,0,45.26,0,67.89-.06,3.76.11,7.53.95,11.2,2.95,14.06,13.93,26.03,27.65,30.25,10.1,3.22,21.44,2.31,30.88-2.52,7.87-3.97,14.38-10.57,18.26-18.49,4.18-8.45,5.26-18.37,3.06-27.53-1.96-8.34-6.66-15.99-13.17-21.55-6.04-5.24-13.66-8.55-21.58-9.58,0,7.75-.01,15.49.01,23.24,3.5,1.13,6.72,3.18,9.02,6.07,5.1,6.12,5.31,15.63.52,21.99-4.52,6.38-13.39,9.12-20.71,6.38-5.81-2.02-10.38-7.22-11.62-13.25-.52-2.35-.4-4.78-.41-7.17,0-18.08,0-36.15,0-54.22-7.6-4.26-15.23-8.47-22.84-12.71Z"/><path class="cls-1" d="M241.57,26.84c18.85,0,37.69-.02,56.54.02,9.59-.04,18.89,5.5,23.51,13.9,4.07,7.18,4.6,16.23,1.36,23.82-2.13,5.17-5.96,9.52-10.62,12.56,6.86,2.4,12.69,7.59,15.75,14.19,3.61,7.57,3.39,16.82-.55,24.22-4.56,8.89-14.3,14.75-24.3,14.61-20.56.02-41.12,0-61.69,0V26.84ZM273.09,52.46v13.9c3.42-.04,6.84.08,10.26-.04,3.1-.14,5.02-3.35,5.18-6.18.32-3.09-1.29-6.91-4.62-7.56-3.6-.28-7.22-.04-10.83-.12ZM273.19,92.38v15.13c4.92-.01,9.85.01,14.78,0,1.61.07,3.23-.55,4.34-1.73,2.99-3.13,2.96-8.65-.07-11.74-1.1-1.15-2.7-1.72-4.28-1.65-4.92,0-9.84.01-14.76,0Z"/><path class="cls-1" d="M322.82,26.84c12.73,0,25.46,0,38.19,0,5.35,15.18,10.69,30.36,16.04,45.53,4.06-15.17,8.09-30.35,12.14-45.53,9.44,0,18.88,0,28.32,0,4.06,15.17,8.1,30.36,12.16,45.52,5.35-15.17,10.68-30.36,16.03-45.52,12.73.01,25.45,0,38.18,0-12.02,34.44-24.04,68.88-36.05,103.32-10.37.01-20.74,0-31.12,0-4.46-16.75-8.91-33.51-13.36-50.25-4.49,16.74-8.91,33.51-13.37,50.25-10.37,0-20.74,0-31.12,0-12.01-34.44-24.04-68.88-36.06-103.32Z"/><path class="cls-1" d="M488.34,26.84c21.36,0,42.71,0,64.08,0v33.3h-19.71c0,23.34,0,46.69,0,70.03h-37.58c0-23.34,0-46.69,0-70.02-6.13-.01-12.26,0-18.39,0,3.86-11.1,7.74-22.2,11.6-33.3Z"/><path class="cls-1" d="M277.6,368.85c.76-.62,1.71-.96,2.7-.88,13.53.05,27.06-.04,40.59.05-4.37,3.3-8.96,6.3-13.3,9.64h-42.29c4.08-2.97,8.21-5.87,12.3-8.81Z"/><path d="M52.54,179.71c17.56,19.16,35.09,38.34,52.61,57.52-5.85-.05-11.71.11-17.56-.07-3.37-3.3-6.23-7.1-9.46-10.54-17.06.04-34.12,0-51.18.02-3.17,3.52-6.25,7.1-9.43,10.62-5.84-.04-11.69,0-17.53-.02,17.5-19.18,35.03-38.34,52.54-57.52ZM35.99,216.64c11.06,0,22.12,0,33.17,0-5.52-6.23-11.06-12.46-16.6-18.68-5.52,6.22-11.06,12.44-16.57,18.68Z"/><path d="M137.88,181.44h15.02v45.83c19.23,0,38.46.03,57.69.06-1.38,3.28-2.78,6.55-4.17,9.83-22.84.03-45.69.05-68.53.07,0-18.59,0-37.19,0-55.79Z"/><path d="M242.38,181.44c22.16.06,44.33,0,66.49.15,5.3-.06,10.73,1.1,15.25,3.94,4.04,2.53,6.69,7.01,7.16,11.73.64,5.38-.57,11.38-4.64,15.21-4.45,4.25-10.82,5.71-16.79,5.95-17.46.23-34.92.09-52.38.21-.03,6.2-.04,12.41-.07,18.61-5,0-10.01,0-15.01,0,0-18.59,0-37.19,0-55.79ZM257.4,191.39c-.02,5.72.01,11.44.09,17.16,15.41.09,30.81.03,46.22-.06,3.1.06,6.38-.48,8.91-2.4,1.78-1.36,2.65-3.63,2.63-5.83.01-2.35-.42-5.02-2.37-6.58-2.29-1.78-5.32-2.14-8.13-2.14-15.78-.11-31.56-.09-47.35-.15Z"/><path d="M371.21,181.45c5.01-.01,10.02,0,15.02,0,0,18.59,0,37.19,0,55.78-5.01,0-10.01,0-15.02,0-.02-18.59,0-37.19-.01-55.78Z"/><path d="M434.27,181.44c4.57,0,9.14,0,13.72-.01,1.8-.17,3.25,1.05,4.76,1.83,19.73,10.91,39.48,21.78,59.22,32.69,0-11.5,0-23.01,0-34.51h14.11c-.03,19.11-.06,38.21-.1,57.32-25.95-14.28-51.89-28.56-77.84-42.83-.02,13.77,0,27.54-.01,41.3-4.62,0-9.24,0-13.86,0,0-18.59,0-37.19,0-55.79Z"/><path d="M574.11,181.45c25.43-.01,50.85,0,76.27,0,0,3.33,0,6.66,0,9.99h-61.24v12.4c20.42,0,40.83,0,61.25,0,0,3.36,0,6.72,0,10.09-20.41,0-40.82,0-61.24,0v13.35c21.07,0,42.14,0,63.22,0v.2c-.86,3.26-1.81,6.49-2.68,9.75-25.19.01-50.37,0-75.56,0-.01-18.6,0-37.2-.01-55.79Z"/><path d="M252.98,283.14c2.97-1.27,6.75.25,7.98,3.24,1.42,2.98.06,6.95-2.97,8.31-3.01,1.54-7.08.1-8.38-3.03-1.54-3.12.06-7.33,3.36-8.52ZM253.44,284.08c-3.93,1.27-4.55,7.27-.99,9.35,3.08,2.2,7.84-.14,8.01-3.91.54-3.68-3.56-6.93-7.02-5.44Z"/><path d="M174.07,283.78c8.81,0,17.62,0,26.43,0,0,1.49,0,2.99,0,4.49-7.08.01-14.16,0-21.24,0,0,3.92,0,7.85,0,11.78,6.13,0,12.26-.01,18.38,0,0,1.49,0,2.99,0,4.49-6.13,0-12.25,0-18.38,0-.02,5.76.03,11.53-.03,17.3-1.72-.02-3.44-.02-5.16-.02v-38.04Z"/><path d="M217.49,283.62c4.57,0,9.14,0,13.7,0,.01,12.73.02,25.47,0,38.2-1.66,0-3.31,0-4.96,0,0-11.18,0-22.37,0-33.55-2.92-.01-5.84.01-8.75-.03,0-1.54,0-3.08.01-4.62Z"/><path d="M294.9,283.78c10.06,0,20.11,0,30.16,0,0,1.49,0,2.99,0,4.49-4.19,0-8.39,0-12.59,0,0,11.18,0,22.37,0,33.56-1.68,0-3.36,0-5.04,0v-33.55c-4.18,0-8.36,0-12.54-.01,0-1.49,0-2.99,0-4.48Z"/><path d="M344.27,283.78c8.4,0,16.8,0,25.21,0,0,1.49,0,2.99,0,4.49-6.87,0-13.73,0-20.59,0,0,3.88,0,7.77,0,11.65,6.43,0,12.86,0,19.29,0,0,1.49,0,2.97,0,4.46-6.43,0-12.85,0-19.28-.01-.03,4.32,0,8.63-.02,12.96,7.14.01,14.27,0,21.41,0v4.49c-8.67,0-17.34,0-26.01,0,0-12.68,0-25.36,0-38.04Z"/><path d="M385.37,321.84c5-12.69,9.95-25.4,14.99-38.07,1.83.02,3.67.02,5.5.01,5.34,12.68,10.64,25.37,15.96,38.06-1.96,0-3.92,0-5.87,0-1.51-3.84-3.02-7.69-4.56-11.52-5.43.02-10.86,0-16.29.02-1.41,3.84-2.85,7.67-4.26,11.5-1.83,0-3.65.01-5.48.01ZM402.98,287.81c-1.39,6.37-4.14,12.3-6.38,18.39,4.4.01,8.8,0,13.21,0-2.3-6.12-4.84-12.16-6.83-18.39Z"/><path d="M439.68,283.78c2.67,0,5.35.01,8.02-.02,3.93,10.78,7.69,21.64,11.58,32.44,3.91-10.75,7.75-21.55,11.84-32.23,2.33-.45,4.79-.08,7.18-.19.05,12.69.01,25.38.02,38.06-1.72,0-3.44,0-5.16,0-.02-10.56.04-21.12-.03-31.68-3.99,10.53-7.82,21.13-11.75,31.68-1.61,0-3.22,0-4.82,0-3.91-10.64-7.61-21.37-11.65-31.96-.16,10.65-.03,21.3-.07,31.95h-5.16c0-12.68,0-25.37,0-38.05Z"/><path d="M252.54,285.66c1.51.11,3.21-.25,4.58.55,1.26,1.07.28,2.76-.94,3.35.76.99,1.46,2.02,2.07,3.11-2.25-.07-2.32-3.17-4.58-3.35-.04,1.04-.05,2.09-.05,3.14-.27.01-.81.04-1.07.05-.02-2.28-.02-4.57-.01-6.84ZM253.63,286.53c0,.57,0,1.7,0,2.26.92-.3,2.4.14,2.91-.86.34-1.74-1.9-1.09-2.91-1.41Z"/><path class="cls-3" d="M320.89,368.02c8.01-.02,16.02-.04,24.03.02-4.6,3.13-9.05,6.47-13.64,9.62h.95s-24.64,0-24.64,0c4.34-3.34,8.93-6.34,13.3-9.64Z"/><path class="cls-2" d="M344.92,368.04c14.03-.06,28.07-.02,42.1-.02-4.57,3.2-9.04,6.56-13.69,9.64h-42.05c4.59-3.15,9.04-6.49,13.64-9.62Z"/></svg>