<?xml version="1.0" encoding="UTF-8"?><svg id="a" xmlns="http://www.w3.org/2000/svg" viewBox="0 0 751.8889 383.7141">
<title>Atlassian_Williams_F1_Team-logo - brandlogos.net</title><path d="M162.8117,183.9153l-20.51,24.8361h10.9817l-25.483,31.9176v-56.7394h-26.0325c-7.351,0-12.8577,2.8722-16.3192,7.2649l-42.8009,53.614v-60.8789H0v125.39h40.9302l44.0692-55.1064v55.1064h25.9057c11.1191,0,15.9757-1.7878,22.7084-9.9257l92.1761-115.4643h-62.9886l.0106-.0143h.0001Z"/><path d="M624.9816,211.6797c-8.7885-3.0408-18.8981-3.7728-28.4265-2.0272-8.7462,1.5912-16.7684,5.8993-23.5117,11.1085-2.2988-2.4072-5.0257-4.463-8.1701-6.1525-4.233-2.2666-9.0791-4.5618-14.4272-5.3222-6.6483-.9433-13.7563-.6194-20.5576.9296-3.7732.8588-7.3194,2.8157-10.5165,4.3081v-3.7733h-36.1264v98.5553h36.1264v-54.2054c0-10.32,7.8002-15.0229,15.0508-15.0229,3.8315,0,7.3616,1.2673,9.9669,3.5482,3.0441,2.6751,4.6348,6.6455,4.6348,11.4604v54.2054h36.1263v-54.2054c-.1005-10.2212,6.7591-15.0086,14.9241-15.0223,3.7045,0,7.0973,1.3233,9.5865,3.5476,2.9436,2.6329,4.492,6.6455,4.492,11.461v54.2048h36.1157l.0371-65.3419c0-7.2786-2.5156-14.079-7.2929-19.6967-4.4022-5.1811-10.6435-10.0246-18.0474-12.5872"/><path d="M310.266,183.9153h-36.1263v125.3906h36.1263v-125.3906h0Z"/><path d="M352.4909,212.7361h-36.1264v96.5698h36.1264v-96.5698h0Z"/><path d="M316.3645,208.7794h36.1264v-18.134c0-3.7167-3.0123-6.7301-6.7327-6.7301h-29.3937v24.8641Z"/><path d="M268.0305,183.9153h-36.1316v125.3906h36.1316v-125.3906h0Z"/><path d="M189.6739,238.9372v70.3687h36.1317v-96.5698h-15.22l-20.9116,26.2011h0Z"/><path d="M440.2331,217.1145c-2.8327-1.8301-5.6336-3.2379-8.8149-4.5195-6.4897-2.6043-13.3492-3.8013-20.3885-3.8013h-.2959c-7.1767.0423-14.1472,1.3096-20.695,4.0407-6.31,2.6328-11.9541,6.3639-16.8107,11.1228-4.8302,4.7304-8.6141,10.2354-11.2617,16.3462-2.7323,6.3216-4.1115,13.0089-4.1115,19.9218,0,6.9272,1.3951,13.6573,4.1379,19.9926,2.6635,6.1244,6.4791,11.6438,11.3357,16.3742,4.8673,4.7589,10.5694,8.4899,16.9058,11.0947,6.59,2.7174,13.587,4.083,20.7954,4.083s13.8988-1.3233,20.3885-3.9424c3.1232-1.2667,6.0246-2.7454,8.8149-4.5195v6.0262h36.1263v-98.569h-36.1263v6.3496h0ZM438.7111,259.7326c0,11.0102-10.0251,19.9504-22.3438,19.9646-12.3186,0-22.3438-8.9544-22.3438-19.9646,0-5.308,2.3094-10.3063,6.4896-14.0653,4.1697-3.7453,9.7292-5.8428,15.6428-5.8851h.2114c12.3187,0,22.3438,8.9544,22.3438,19.9646"/><path d="M751.8889,277.9791c-.0423,9.2224-4.4603,18.6836-12.9212,24.1179-9.6605,6.1953-22.4601,9.6161-36.0154,9.6161-22.0636,0-46.9282-10.292-47.2241-33.4945v-3.7025h37.5638s-.0529,1.9004.5495,3.3928c1.2525,3.0974,5.66,6.1387,10.1256,6.1387,5.4908,0,10.1203-2.506,10.1203-5.4771,0-1.6187-.6606-2.1821-2.04-2.7454-2.2513-.9291-6.0563-1.5907-10.3633-2.1118-9.0263-1.1124-21.3292-3.1254-32.5539-10.3063l-.1532-.1126c-4.2226-2.9705-7.3616-6.1245-9.5707-9.6441-2.4785-3.9424-3.731-8.3493-3.731-13.0797,0-9.1515,5.0364-17.4021,14.2053-23.2311,4.4075-2.8014,9.6289-4.9698,15.516-6.4622,5.9242-1.4924,12.4033-2.1118,19.2311-2.1118h.1268c4.9149.1126,10.1521.6616,15.1355,1.8444,5.5331,1.309,10.5588,3.1677,14.9346,5.5188,5.0259,2.7031,8.9841,5.9559,11.785,9.6726,3.1813,4.2235,4.788,8.9687,4.788,14.1076v3.8716h-39.9684s.2643-2.6751-.8191-4.3081c-.5601-.9153-2.5472-2.5768-6.5741-2.5768-2.9436,0-4.5343.4085-5.7868,1.1827-.6501.3942-1.3952,1.0702-1.3952,2.8162,0,.9856.2537,2.0552,3.2976,3.3225,3.1233,1.2953,7.811,2.2386,13.2329,3.3088,8.5032,1.6895,16.9112,2.7597,26.1014,7.4335l.1426.0708s.1269.0703.1427.0845c8.9101,4.9698,12.1074,12.5301,12.065,22.8786"/><path d="M231.8989,341.716v41.9842h6.3848v-16.969h22.4267v-5.1537h-22.4267v-14.6389h25.1793v-5.2226h-31.5641,0Z"/><path d="M273.7837,341.716v5.2226h11.2005v36.7615h6.3334v-41.9842h-17.5339Z"/><path d="M330.7946,341.716v5.2226h15.3216v36.7615h6.3335v-36.7615h15.3216v-5.2226h-36.9767,0Z"/><path d="M382.3983,341.716v41.9842h32.4595v-5.2082h-26.0694v-13.5564h22.4216v-5.0986h-22.4216v-12.8983h25.164v-5.2226h-31.5541Z"/><path d="M449.478,347.802l9.6364,20.6013h-19.2831l9.6364-20.6013h.0104-.0001ZM446.3395,341.716l-20.2453,41.9981h6.5803l4.9083-10.4993h23.7799l4.9082,10.4993h6.7143l-20.3122-41.9981h-6.3335Z"/><path d="M529.5844,341.716l-18.4086,29.4974-18.64-29.4974h-5.2376v41.9842h6.1277v-30.4292l16.1602,25.3306h2.948l16.1602-25.5225.0515,30.6211h6.143l-.0721-41.9842h-5.2324,0Z"/><path d="M0,136.3882c250.4318-4.7748,501.4124-4.8085,751.8889,0-250.4317,4.8085-501.4571,4.7748-751.8889,0Z"/><path d="M643.2229,9.7145h-23.9507l-27.2273,78.4232h20.9067l3.8579-13.221c4.6612,1.3656,9.6448,2.1964,14.586,2.1964s9.8984-.8308,14.586-2.1964l3.8579,13.221h20.9067l-27.5232-78.4232ZM631.3797,60.6118c-3.5778,0-6.8702-.5491-9.8984-1.3793l9.8984-34.1007,9.8984,34.1007c-3.0282.8302-6.6007,1.3793-9.8984,1.3793ZM362.575,9.7145h-23.9491l-27.5253,78.4232h20.9077l3.8579-13.221c4.6601,1.3656,9.6448,2.1964,14.5866,2.1964s9.8979-.8308,14.586-2.1964l3.8579,13.221h20.9082l-27.2442-78.4232h-.028.0423ZM350.4807,60.6118c-3.5762,0-6.8708-.5491-9.8979-1.3793l9.8979-34.1007,9.8979,34.1007c-3.0271.8302-6.3217,1.3793-9.8979,1.3793ZM159.8164,9.7145h-23.9491l-27.2442,78.4232h20.9082l3.8579-13.221c4.6601,1.3656,9.6442,2.1964,14.586,2.1964s9.8979-.8308,14.5866-2.1964l3.8579,13.221h20.9077c-.2817,0-27.5253-78.4232-27.5253-78.4232h-.028.0423ZM147.7079,60.6118c-3.5762,0-6.8708-.5491-9.8979-1.3793l9.8979-34.1007,9.8979,34.1007c-3.0414.8302-6.3217,1.3793-9.8979,1.3793ZM186.483,9.6865h60.2599v16.7967h-21.7385v61.6545h-18.4302V26.5117h-20.0912V9.6865ZM278.6614,9.7145v61.3728h25.033l-5.7863,17.0503h-37.4238V9.7145h18.1771ZM538.3832,64.7657c0,14.586-8.7833,24.4839-30.5218,24.4839-15.6848,0-23.9496-3.5762-30.2713-6.6034v-18.7113c7.9832,4.6601,20.0775,8.2363,30.2713,8.2363,8.8134,0,11.5589-2.4638,11.5589-6.6033s-2.7455-6.068-15.1351-8.8135c-21.1756-4.1253-26.4134-13.1924-26.4134-24.7519,0-14.3049,10.447-23.1183,30.8204-23.1183,10.7281,0,19.8244,2.1964,25.8649,5.2372v17.8811c-8.5334-3.8579-17.3331-6.6034-26.4139-6.6034-7.4341,0-11.5594,1.9147-11.5594,6.3217,0,3.5762,2.7455,6.04,14.0232,8.5323,20.626,4.407,27.7763,10.7287,27.7763,24.4839v.0287ZM577.4431,88.1377h-18.1638V9.7145h18.1638v78.4232ZM710.0861,9.7145l18.9618,35.7622,6.3259,14.854V9.7145h16.515v78.4232h-20.9119l-23.6653-44.0266-6.8702-15.6847v59.7113h-16.8004V9.7145h26.4451,0ZM401.9128,31.7209c0,11.5594,5.2378,20.6266,26.4134,24.7519,12.3897,2.7455,15.1351,4.6601,15.1351,8.8135s-2.7454,6.6034-11.5589,6.6034c-10.1796,0-22.2881-3.5762-30.2708-8.2363v18.7119c6.3217,3.0271,14.586,6.6028,30.2708,6.6028,22.0059,0,30.5245-9.8979,30.5245-24.2023M462.4549,65.0188c0-13.7558-7.1524-20.0775-27.779-24.4839-11.2777-2.4923-14.0232-4.9561-14.0232-8.518,0-4.407,4.1253-6.3217,11.5594-6.3217,9.0671,0,17.8811,2.7455,26.4128,6.6028V14.4174c-6.068-3.0271-15.1351-5.2378-25.8638-5.2378-20.3729,0-30.8061,8.814-30.8061,23.1183M88.9399,84.4066L47.7858,2.0975c-.8026-1.7878-1.6051-2.0975-2.5907-2.0975-.8025,0-1.7881.3377-2.7455,1.9427-5.8289,9.222-8.4195,19.9226-8.4195,31.1015,0,15.5579,7.9268,30.1445,19.5984,53.6148,1.2958,2.5906,2.2809,3.0837,4.5338,3.0837h28.5109c2.0981,0,3.2385-.8028,3.2385-2.4358,0-.8028-.1548-1.2953-.9856-2.9288l.028.0285h-.0143,0ZM29.1586,45.5327c-3.2383-4.8715-4.2239-5.1812-5.0264-5.1812s-1.2953.3382-2.7455,3.2385L.8025,84.7163c-.6477,1.2953-.8025,1.7878-.8025,2.4358,0,1.2953,1.1404,2.5906,3.5762,2.5906h29.0037c1.943,0,3.3932-1.6335,4.2239-4.6887.9856-3.8859,1.2953-7.2793,1.2953-11.348,0-11.348-5.0264-22.3584-8.9123-28.2012l-.0281.028h0Z" style="fill:#1868db;"/></svg>