<?xml version="1.0" encoding="UTF-8"?><svg id="a" xmlns="http://www.w3.org/2000/svg" viewBox="0 0 443.86 490.08">
<title>Mercedes-AMG_PETRONAS_F1_Team-logo - brandlogos.net</title><path d="M356.28,362.42h85.05c1.39,0,2.53-1.13,2.53-2.52v-21.16c0-1.39-1.14-2.52-2.53-2.52h-41.8c-1.39,0-2.53,1.13-2.53,2.52v3.82c0,1.39,1.14,2.52,2.53,2.52h27.45c.46,0,.84.38.84.84v4.1c0,.46-.38.84-.84.84h-54.66c-1.39,0-2.53-1.13-2.53-2.52v-15.7c0-1.39,1.14-2.52,2.53-2.52h69.01c1.39,0,2.53-1.13,2.53-2.52v-5.75c0-1.39-1.14-2.52-2.53-2.52h-85.05c-1.39,0-2.53,1.13-2.53,2.52v38.06c0,1.39,1.14,2.52,2.53,2.52h0v-.0101ZM332.47,362.42h10.98c1.39,0,2.53-1.13,2.53-2.52v-38.06c0-1.39-1.14-2.52-2.53-2.52h-12.32c-.51,0-.95.13-1.38.41l-30.09,19.57c-.86.56-1.9.56-2.76,0l-30.09-19.57c-.43-.28-.87-.41-1.38-.41h-12.32c-1.39,0-2.53,1.13-2.53,2.52v38.06c0,1.39,1.14,2.52,2.53,2.52h10.98c1.39,0,2.53-1.13,2.53-2.52v-22.94c0-.44.22-.82.61-1.03.39-.21.82-.2,1.2.03l23.29,14.56c.42.26.85.39,1.34.39h10.46c.5,0,.92-.12,1.34-.39l23.29-14.56c.37-.23.81-.25,1.2-.03.39.21.61.59.61,1.03v22.94c0,1.39,1.14,2.52,2.53,2.52h-.02ZM240.28,362.42h-10.98c-1.39,0-2.53-1.13-2.53-2.52v-6.7c0-.46-.38-.84-.84-.84h-57.71c-.81,0-1.51.34-2,.98l-6.03,7.78c-.66.85-1.59,1.31-2.67,1.31h-15.07c-.46,0-.86-.24-1.06-.66-.2-.41-.16-.88.13-1.24l31.18-40.23c.5-.64,1.19-.98,2-.98h65.59c1.39,0,2.53,1.13,2.53,2.52v38.06c0,1.39-1.14,2.52-2.53,2.52h-.01ZM226.77,340.4v-9.46c0-.46-.38-.84-.84-.84h-40.88c-.54,0-1,.23-1.33.65l-7.29,9.4c-.16.21-.19.47-.07.71.12.24.34.38.61.38h48.97c.46,0,.84-.38.84-.84h-.01ZM37.38,362.42H1.2c-.46,0-.86-.24-1.06-.66-.2-.41-.16-.88.13-1.24l31.18-40.23c.49-.64,1.19-.98,2-.98h35.84c.53,0,.98.28,1.21.75.23.47.18,1-.14,1.42l-30.97,39.95c-.5.64-1.19.98-2,.98h0l-.01.01ZM63.69,362.42h-17.14c-.46,0-.86-.24-1.06-.66-.2-.41-.16-.88.13-1.24l31.18-40.23c.5-.64,1.19-.98,2-.98h16.79c.53,0,.98.28,1.21.75.23.47.18,1-.14,1.42l-30.97,39.95c-.49.64-1.19.98-2,.98h0v.01ZM87.27,362.42h-13.23c-.46,0-.86-.24-1.06-.66-.2-.41-.16-.88.13-1.24l31.18-40.23c.49-.64,1.19-.98,2-.98h12.89c.53,0,.98.28,1.21.75.23.47.18,1-.14,1.42l-30.96,39.95c-.49.64-1.19.98-2,.98h0l-.02.01ZM108.59,362.42h-9.24c-.46,0-.86-.24-1.06-.66-.2-.41-.16-.88.13-1.24l31.18-40.23c.5-.64,1.19-.98,2-.98h8.9c.53,0,.98.28,1.21.75.23.47.18,1-.14,1.42l-30.97,39.95c-.49.64-1.19.98-2,.98h0l-.01.01ZM129,362.42h-6.79c-.46,0-.86-.24-1.06-.66-.2-.41-.16-.88.13-1.24l31.18-40.23c.5-.64,1.19-.98,2-.98h6.45c.53,0,.98.28,1.21.75.23.47.18,1-.14,1.42l-30.97,39.95c-.49.64-1.19.98-2,.98h0l-.01.01Z" style="fill-rule:evenodd;"/><path d="M205.23,403.63v-.13c0-11.92-8.76-18.91-22.35-18.91h-21.04c-2.02,0-3.8,1.62-3.8,3.5v50.15h14.89v-13.55c0-.87.87-1.79,1.7-1.79h5.28l10.37,15.33h17.23l-12.4-17.99c6.24-3.07,10.11-8.67,10.11-16.62l.01.0099ZM190.35,404.31c0,4.22-3.22,6.96-8.52,6.96h-8.9v-11.83c0-1.27,1.04-2.33,2.31-2.33h6.49c5.39,0,8.61,2.43,8.61,7.04v.15l.01.01Z" style="fill:#00a19b;"/><path d="M240.26,383.53c-16.58,0-29.01,12.49-29.01,27.91v.11c0,15.45,12.27,27.79,28.87,27.79s29.06-12.53,29.06-27.9v-.17c0-15.39-12.34-27.74-28.92-27.74M253.95,411.55c0,7.74-5.42,14.34-13.69,14.34s-13.74-6.74-13.74-14.45v-.17c0-7.74,5.48-14.33,13.61-14.33s13.82,6.76,13.82,14.51v.11-.01Z" style="fill:#00a19b;"/><path d="M313.18,388.04v24.93l-22.12-28.38h-10.09c-2.12,0-3.83,1.74-3.83,3.84v49.81h14.76v-29.4l22.98,29.4h13.03v-53.65h-10.94c-1.99,0-3.79,1.52-3.79,3.45" style="fill:#00a19b;"/><path d="M103.39,388.27v9.37h16.12v40.59h14.92v-38.89c0-.92.77-1.7,1.87-1.7h14.27v-13.05h-43.36c-2.07,0-3.81,1.79-3.81,3.68" style="fill:#00a19b;"/><path d="M53.56,388.3v49.93h43.24v-12.67h-28.5v-6.45c0-1.01.9-2.03,1.86-2.03h23.29v-11.71h-25.15v-6.1c0-.95.81-2.03,1.74-2.03h26.76v-12.66h-39.42c-2.05,0-3.83,1.7-3.83,3.71" style="fill:#00a19b;"/><path d="M423.83,404.82c-7.49-1.67-9.31-2.74-9.31-5.16v-.18c0-1.93,1.75-3.45,5.36-3.45,3.31,0,6.85.89,10.36,2.55,0,0,.77.38,1.11.57,1.02.46,2.19.84,3.66.53,1.04-.22,1.79-1.16,2.72-2.28l4.66-6.58c-5.82-4.68-12.94-7.14-22.12-7.14-12.89,0-20.82,7.21-20.82,17.18v.15c0,11.03,8.86,14.24,20.29,16.87,7.29,1.66,9.04,2.9,9.04,5.13v.13c0,2.33-2.13,3.67-6.12,3.67-4.7,0-9.24-1.26-13.44-3.7-1.22-.61-2.7-1.42-4.63-.99-.79.18-1.4.71-2.05,1.47l-5.62,6.71c6.6,5.85,15.69,8.86,25.21,8.86,13.06,0,21.72-6.51,21.72-17.46v-.15c0-10.03-7.69-14.04-20.02-16.73" style="fill:#00a19b;"/><path d="M350.29,438.23l2.71-6.78c.42-1.07,1.32-2.2,2.47-2.4h19.22l3.77,9.18h15.97l-22.75-53.64h-12.21c-1.8.21-2.53,1.16-3.17,2.46l-21.71,51.18h15.7001ZM364.42,402.21l6,15.25h-12.1l6.1-15.25Z" style="fill:#00a19b;"/><path d="M14.91,438.24c0-3.99-.02-13.01,0-13.53.03-.73.54-1.47,1.26-1.72.32-.11.68-.08,1.02-.08h5.74c4,0,7.96-.33,11.75-1.68,3.98-1.42,7.57-3.86,9.84-7.49,2.23-3.57,2.95-7.9,2.63-12.05-.24-3.1-1.17-6.14-2.93-8.73-3.73-5.49-10.38-7.84-16.77-8.28-.86-.06-1.75-.1-2.58-.09H6.67c-2.52,0-6.64-.12-6.64,3.51v50.15h14.89l-.01-.01ZM32.32,404.31c0,4.22-3.22,6.96-8.52,6.96h-8.9v-11.83c0-1.27,1.04-2.33,2.31-2.33h6.49c5.39,0,8.61,2.43,8.61,7.04v.15l.01.01Z" style="fill:#00a19b;"/><path d="M3.23,460.4h16.17v5.31H6.28v7.08h11.88v5.02h-9.08l-1.98-1.98h-.83v13.79H0v-26.05c0-1.81,1.36-3.17,3.22-3.17h.01Z"/><path d="M29.18,474.97c0-9.38,6.77-15.02,15.14-15.02s15.1,5.64,15.1,15.02-6.77,15.1-15.1,15.1-15.14-5.64-15.14-15.1ZM44.29,484.93c5.16,0,8.75-3.58,8.75-9.96s-3.63-9.88-8.75-9.88-8.75,3.58-8.75,9.88,3.63,9.96,8.75,9.96Z"/><path d="M73.7,460.4h9.74c6.07,0,10.15,3.29,10.15,9.05,0,3.7-1.82,6.46-4.87,7.9v.82l2.56,1.32,3.34,10.12h-6.52l-3.75-11.28c-.25.04-.49.04-.78.04h-6.81v11.23h-6.27v-26.05c0-1.81,1.36-3.17,3.22-3.17l-.01.02ZM87.23,469.38c0-2.59-1.44-3.99-4.25-3.99h-6.23v8.19h6.6c2.68,0,3.88-1.56,3.88-4.2Z"/><path d="M105.34,489.62v-26.05c0-1.81,1.36-3.17,3.22-3.17h8l4.33,18.15.95,5.47h1.32l.95-5.47,4.29-18.15h11.26v29.22h-5.74v-23.62h-1.32l-1.32,6.05-4.21,17.57h-9.16l-4.25-17.57-1.32-6.05h-1.32l.04,6.05v17.57h-5.74.02Z"/><path d="M151.43,478.72v-18.31h6.23v18.06c0,4.12,2.52,6.34,5.86,6.34s5.86-2.22,5.86-6.34v-18.06h6.27v18.31c0,5.35-3.42,11.36-12.13,11.36s-12.09-6.05-12.09-11.36h0Z"/><path d="M187.4,460.4h6.27v23.91h12.91v5.31h-19.19v-29.22h.01Z"/><path d="M224.41,460.4h11.1l9.12,29.22h-6.35l-2.43-8.39h-8.54l-1.98-1.98h-.78l-3.01,10.37h-6.23l9.12-29.22h-.02ZM234.39,476.25l-1.65-5.72-1.44-5.23h-2.76l-1.44,5.23-1.65,5.72h8.95-.01Z"/><path d="M274.51,466.54h-1.07l-5.24,4.11h-1.07v-5.72l5.4-4.53h5.03c1.86,0,3.18,1.36,3.18,3.17v26.05h-6.23v-23.08h0Z"/><path d="M315.38,465.71h-8.58v-5.31h23.39v5.31h-8.58v23.91h-6.23v-23.91Z"/><path d="M343.81,460.4h16.38v5.23h-13.33v6.83h11.92v5.06h-9.12l-1.98-1.98h-.83v8.85h13.45v5.23h-19.72v-26.05c0-1.81,1.36-3.17,3.22-3.17h.01Z"/><path d="M379.33,460.4h11.1l9.12,29.22h-6.35l-2.43-8.39h-8.54l-1.98-1.98h-.78l-3.01,10.37h-6.23l9.12-29.22h-.02ZM389.31,476.25l-1.65-5.72-1.44-5.23h-2.76l-1.44,5.23-1.65,5.72h8.95-.0099Z"/><path d="M409.53,489.62v-26.05c0-1.81,1.36-3.17,3.22-3.17h8l4.33,18.15.95,5.47h1.32l.95-5.47,4.29-18.15h11.26v29.22h-5.73v-23.62h-1.32l-1.32,6.05-4.21,17.57h-9.16l-4.25-17.57-1.32-6.05h-1.32l.04,6.05v17.57h-5.74.01Z"/><path d="M337.06,66.47c-11.67-20.21-28.45-36.99-48.66-48.66S245.27,0,221.93,0s-46.26,6.14-66.47,17.81-36.99,28.45-48.66,48.66c-11.67,20.21-17.81,43.13-17.81,66.47s6.14,46.26,17.81,66.47c11.67,20.21,28.45,36.99,48.66,48.66s43.13,17.81,66.47,17.81,46.26-6.14,66.47-17.81c20.21-11.67,36.99-28.45,48.66-48.66,11.67-20.21,17.81-43.13,17.81-66.47s-6.14-46.26-17.81-66.47ZM102.29,132.93c0-21,5.53-41.63,16.03-59.82s25.6-33.29,43.79-43.79c17.11-9.88,36.37-15.35,56.08-15.97l-15.26,108.61-86.43,67.52c-9.32-17.37-14.21-36.8-14.21-56.55h0ZM281.76,236.55c-18.19,10.5-38.82,16.03-59.82,16.03s-41.63-5.53-59.82-16.03c-17.11-9.88-31.48-23.82-41.87-40.58l101.69-41.09,101.69,41.09c-10.39,16.75-24.76,30.7-41.87,40.58h0ZM327.37,189.48l-86.43-67.52-15.26-108.61c19.7.62,38.97,6.09,56.08,15.97,18.19,10.5,33.29,25.6,43.79,43.79,10.5,18.19,16.03,38.82,16.03,59.82,0,19.75-4.89,39.18-14.21,56.55h0Z"/><path d="M283.34,463.09c0-1.53,1.24-2.77,2.83-2.77s2.83,1.24,2.83,2.77-1.24,2.77-2.84,2.77-2.83-1.24-2.83-2.77h.01ZM286.17,465.42c1.33,0,2.37-1.03,2.37-2.33s-1.04-2.32-2.37-2.32-2.37,1.02-2.37,2.32,1.03,2.33,2.37,2.33ZM285.27,461.44h1.24c.66,0,1.12.38,1.12,1.05,0,.46-.26.8-.65.94l.69,1.32h-.93l-.6-1.24h-.41v1.24h-.86v-2.93c0-.22.17-.38.39-.38h.01ZM286.76,462.49c0-.24-.14-.38-.4-.38h-.63v.78h.66c.26,0,.36-.16.36-.4h.01Z"/></svg>