<?xml version="1.0" encoding="UTF-8"?><svg id="uuid-f7dac434-9aa5-4dc3-93f1-be137841e15f" xmlns="http://www.w3.org/2000/svg" viewBox="0 0 215.5 143.1">
<title>MoneyGram Haas F1 Team logo - Brandlogos.net</title><g id="uuid-ab3ef08b-6729-454f-b403-3602e8fe6d8b"><path d="M134.5,55.9c-5.4,9.1-15.3,15.3-26.7,15.3-8.4,0-16-3.4-21.6-8.8h8.7s25-44,25.1-44.2.1-.3-.1-.3h-10.2c-.2,0-.2.1-.3.1-.1.1-14.1,24.5-14.1,24.5h-18.4c-.1-.8-.1-1.5-.1-2.3,0-17.1,13.9-31,31-31,8.7,0,16.6,3.6,22.3,9.5-2.4,4.1-13.4,22.8-14.9,25.5-.9-2-4.8-1.6-6.8-1.6-.9,1.5-5,9.3-5,9.3h4.4c2,0,2.2,2.1,1.4,3.4-.8,1.3-4.1,7.1-4.1,7.1h10.5s12.9-22.6,20.3-35.4c1,2.1,1.8,4.4,2.3,6.7,2.5-1.7,5.5-2.7,8.8-2.7h0C142.7,13.2,126.8,0,107.8,0c-22.2,0-40.2,18-40.2,40.2,0,.8,0,1.6.1,2.3h-5.2c-.3,0-.4.2-.6.4-.1.2-4.7,8.4-4.9,8.6-.1.2-.1.3.1.3h12.2c5,16.5,20.3,28.5,38.5,28.5,14.5,0,27.1-7.6,34.2-19.1-3-.9-5.6-2.8-7.5-5.3ZM79,51.8h10.7l-5.2,8.9c-2.2-2.6-4.1-5.6-5.5-8.9Z" style="fill:#da291c; fill-rule:evenodd;"/><path d="M141.6,51.1c2.8,0,6-1.4,8.8-3.9,0,0-.4,2-.5,2.6s.3,1.1.9,1.1h.2c.6,0,1.1-.5,1.2-1.1l1-5.6c.1-.6-.3-1.1-.9-1.1h-5.6c-.6,0-1.2.3-1.3.9v.3c-.1.6.3,1,.9,1h2.9l-.1.1c-2,1.9-4.5,2.9-6.5,2.9s-4.3-1.3-4.3-4.2c0-6,5.6-9.5,8.6-9.5-4.7,0-8.8,2.8-10.7,6.9-.4,1.2-.7,2.3-.7,3.4,0,5.4,4.3,6.2,6.1,6.2Z" style="fill:#fff;"/><path d="M146.8,34.7c-3,0-8.6,3.5-8.6,9.5,0,2.9,2.3,4.2,4.3,4.2s4.5-1,6.5-2.9l.1-.1h-2.9c-.6,0-1-.4-.9-1v-.3c.1-.6.7-.9,1.3-.9h5.6c.6,0,1,.5.9,1.1l-1,5.6c-.1.6-.5,1.1-1.2,1.1h-.2c-.6,0-1-.5-.9-1.1s.5-2.6.5-2.6c-2.7,2.5-6,3.9-8.8,3.9-1.8,0-6.1-.8-6.1-6.1,0-1.1.2-2.2.7-3.4v.1c-.1.2-.2.5-.3.7s-.1.3-.2.5c-.1.2-.1.5-.2.7,0,.2-.1.3-.1.5-.1.3-.1.5-.1.8,0,.1,0,.3-.1.4,0,.4-.1.8-.1,1.3,0,2,.5,3.9,1.4,5.6,1.1,2,2.7,3.7,4.7,4.7,1.7.9,3.6,1.4,5.6,1.4s3.9-.5,5.6-1.4c2-1.1,3.7-2.7,4.7-4.7.9-1.7,1.4-3.6,1.4-5.6.2-6.7-5.1-12-11.6-12Z" style="fill:#da291c;"/><path d="M2,112.4h.6c1.5,0,2.2-.7,2.5-2.4l3.2-18.1,3.1,12.1c.3,1.2.5,2,2.8,2,2,0,2.4-.7,3.1-1.8l7.6-12.5-3.2,18.1c-.3,1.7.5,2.6,1.9,2.6h.6c1.5,0,2.2-.8,2.5-2.4l4-22.4c.3-1.8-.5-3-2.4-3h-1.6c-1.6,0-2.2.5-3.3,2.2l-8.6,13.9-3.6-13.8c-.4-1.6-.9-2.3-2.7-2.3h-1.2c-1.7,0-2.9,1-3.2,2.9L.1,109.9c-.3,1.6.4,2.5,1.9,2.5Z"/><path d="M40.2,112.4c7.3,0,11.4-5.8,11.2-12.2-.2-5.4-3.9-9.4-10.1-9.4-7.1,0-11.4,5.8-11.2,12.1.2,5.8,4.2,9.5,10.1,9.5ZM41.3,94.7c3.1,0,5.5,2.4,5.6,5.7.1,4.5-2.7,8-6.7,8-3.3,0-5.4-2.4-5.6-5.7-.1-4.2,2.7-8,6.7-8Z"/><path d="M54.1,112.4h.6c1.5,0,2.1-.6,2.4-2.4l1.9-11c1.4-2.4,2.9-3.6,5.3-3.6s3.8,1.4,3.8,3.8c0,.6-.1,1.4-.2,2.3l-1.5,8.4c-.3,1.9.8,2.4,2.1,2.4h.6c1.5,0,2.1-.6,2.4-2.4l1.6-9.3c.2-1,.3-2,.3-2.8-.1-4-2.7-6.7-7.1-6.7-3,0-5.3,1.5-6.8,3.9.1-2.8-1.4-3.6-3-3.6-.7,0-1.3.2-1.4.3l-3.1,18.3c-.3,1.9.8,2.4,2.1,2.4Z"/><path d="M144.5,112.4h.6c1.3,0,1.9-.6,2.2-2.4l1.1-6.1c.8-4.7,2.6-8.1,5.4-8.1,1.4,0,2.2.6,2.9,1.2.1.1,2.2-.7,2.1-3.3-.1-1.6-1.6-2.6-3.6-2.6-2.4,0-4.2,1.4-5.5,3.9.2-2.8-1.4-3.6-2.9-3.6-.8,0-1.3.2-1.4.3l-3.2,18.2c-.3,2,1,2.5,2.3,2.5Z"/><path d="M166,112.4c3.2,0,5.6-1.3,7.2-4-.2,2.7.3,3.6,2.3,3.6,1.8,0,2.3-.6,2.5-2.6.2-3.6,1.5-9.5,2.9-17.7,0-.1-.8-.6-1.8-.6-2,0-3.1,1-3.7,3.5-1.3-2.4-3.9-3.8-6.9-3.8-6.4,0-10.9,5.7-10.9,12.3-.1,5.3,3.2,9.3,8.4,9.3ZM169.1,94.7c3.6,0,5.2,2.7,5.2,5.6,0,3.7-2.5,8.2-7.1,8.2-3.1,0-5-2-5-5.5,0-4.2,2.4-8.3,6.9-8.3Z"/><path d="M182.9,112.4h.6c1.3,0,2.1-.5,2.4-2.4l2-11.3c1.5-2.2,2.8-3.2,5-3.2s3.4,1.6,3.4,4c0,.4,0,.8-.1,1.2l-1.6,9.3c-.3,1.9.8,2.4,2.1,2.4h.5c1.3,0,2.1-.6,2.5-2.4l2-11.3c1.5-2.2,2.9-3.2,5-3.2s3.5,1.2,3.5,3.8c0,.6-.1,1.4-.3,2.3l-1.5,8.4c-.3,1.9.7,2.4,2.1,2.4h.6c1.5,0,2.1-.6,2.4-2.4l1.6-9.3c.2-1,.3-2,.3-2.8,0-4.1-2.8-6.7-6.7-6.7-3.5,0-5.9,1.8-7.5,4.5-.8-2.8-3.2-4.5-6.3-4.5-2.7,0-5,1.3-6.6,3.7.1-2.6-1.4-3.3-3-3.3-.7,0-1.3.2-1.4.3l-3.2,18.2c-.2,1.8.9,2.3,2.2,2.3Z"/><path d="M84.8,112.4c6.1,0,9.6-2.7,9.6-4.9,0-1.5-1-2-2.2-2.1-1.6,2.1-3.8,3.1-6.9,3.1-2.7,0-5.9-1-6.1-5.8h13.9c1.5,0,2.6-.9,2.6-2.7,0-2.8-.6-4.7-1.9-6.3-1.4-1.8-4-2.9-6.9-2.9-9.1,0-12.3,6.7-12.3,12.5.1,5.4,4.1,9.1,10.2,9.1ZM86.6,94.5c1.6,0,2.9.5,3.7,1.4.7.8,1,2,.9,3.4h-11.5c1.1-3,3.7-4.8,6.9-4.8Z"/><path d="M97.8,120.4h1c1.9,0,2.5-1.1,3.4-2.7l13-21.9c-.4,1.5-.6,3.2-.5,4.8.2,7.4,5.2,11.8,12.5,11.8,3.5,0,6.2-1.3,7.7-3.3-.1,2.1,1,3,2.6,3,.9,0,1.5-.3,1.5-.4l2.1-11.8c.3-1.8-.4-2.7-2.1-2.7h-8.3c-1,0-1.5.2-1.8.5-.5.5-.7,1.7-.7,2.3,0,.9.8,1.4,2.1,1.4h5.9c-.8,4.1-3.4,7-7.9,7s-7.9-3-8.1-8.1c-.2-6.4,4-11.7,10.1-11.7,3.5,0,6.3,1.9,7.4,4.4.1.2,3.4.2,3.3-2.6,0-1-.6-2.2-1.7-3.2-1.7-1.7-5-3.2-9.3-3.2-6.1,0-10.8,3.3-13.3,8.2h0c-.5-.6-1.3-1-2.1-1-1.4,0-2.2.4-3.5,2.7l-6.4,11.3-2.4-11.3c-.5-2.1-1.2-2.7-2.6-2.7-1.6,0-2.9,1.1-2.8,1.4l4.6,18.2-4.8,7.8c-.7.7-.7,1.8,1.1,1.8Z"/><polygon points="16.5 134 1.9 134 1.9 127.2 0 127.2 0 142.9 1.9 142.9 1.9 135.6 16.5 135.6 16.5 142.9 18.3 142.9 18.3 127.2 16.5 127.2 16.5 134"/><path d="M29.3,127.2l-9.2,15.6h2.2l2-3.5h12.5l2.1,3.5h2.2l-9.3-15.6s-2.5,0-2.5,0ZM25.3,137.8l5.3-9.2,5.4,9.2h-10.7Z"/><path d="M52.2,127.2l-9.2,15.7h2.2l2-3.5h12.5l2.1,3.5h2.2l-9.3-15.6h-2.5v-.1ZM48.2,137.8l5.3-9.2,5.4,9.2h-10.7Z"/><path d="M78.9,134.3c-1-.1-1.8-.2-2.3-.2h-7.1c-1,0-1.8-.2-2.3-.5s-.8-1-.8-2c0-.5.1-1,.2-1.4s.5-.7,1-.9,1.3-.4,2.4-.5,2.2-.1,3.2-.1h.7c1.4,0,2.5.1,3.3.2.9.1,1.5.2,1.8.4s.6.4.7.8c.2.4.2.9.2,1.7h1.9c0-1.4-.3-2.5-.9-3.2s-1.5-1.1-2.6-1.2-2-.2-2.5-.2h-2.5c-1.4,0-2.6,0-3.7.1s-2.1.3-2.9.6c-.8.3-1.4.8-1.7,1.5-.3.7-.5,1.6-.5,2.7,0,1.3.4,2.3,1.2,2.9.8.6,1.9.8,3.4.8l4.2.1h3.6c1.2,0,2.1.2,2.7.5.5.3.8,1,.8,2.2,0,.9-.2,1.5-.6,1.9s-1.2.7-2.3.8c-1.1.1-2.5.2-4.1.2-1,0-2,0-3-.1s-1.9-.2-2.5-.4-1-.5-1.1-.9-.2-1-.2-1.9v-.3h-1.9c0,1.7.3,2.9.8,3.6.5.7,1.4,1.1,2.6,1.3s2.1.3,2.7.3h3.8c1.2,0,2.3,0,3.3-.1s1.9-.3,2.6-.6,1.2-.8,1.5-1.4c.3-.6.4-1.4.4-2.4,0-1.4-.3-2.5-.9-3.1-.7-.7-1.6-1.1-2.6-1.2Z"/><polygon points="94.5 142.9 96.4 142.9 96.4 135.6 108.8 135.6 108.8 134 96.4 134 96.4 128.8 109.4 128.8 109.4 127.2 94.5 127.2 94.5 142.9"/><polygon points="131.1 128.8 138.9 128.8 138.9 142.9 140.8 142.9 140.8 128.8 148.8 128.8 148.8 127.2 131.1 127.2 131.1 128.8"/><polygon points="152.4 135.6 165.5 135.6 165.5 134 152.4 134 152.4 128.8 166 128.8 166 127.2 150.5 127.2 150.5 142.9 166.1 142.9 166.1 141.3 152.4 141.3 152.4 135.6"/><path d="M177.1,127.2l-9.2,15.6h2.2l2-3.5h12.5l2.1,3.5h2.2l-9.3-15.6s-2.5,0-2.5,0ZM173.1,137.8l5.3-9.2,5.4,9.2h-10.7Z"/><polygon points="203.1 140.6 193.8 127.2 190.7 127.2 190.7 142.9 192.6 142.9 192.6 128.8 202.3 142.9 203.8 142.9 213.6 128.8 213.6 142.9 215.5 142.9 215.5 127.2 212.5 127.2 203.1 140.6"/><polygon points="117 127.2 117 127.2 112.7 130.3 113.7 131.9 117 129.5 117 142.9 118.9 142.9 118.9 127.2 117 127.2"/><path d="M122.2,127.6c-.1-.1-.2-.1-.3-.2-.1,0-.2-.1-.4-.1-.1,0-.3,0-.4.1-.1,0-.2.1-.3.2-.1.1-.2.2-.2.3-.1.1-.1.2-.1.4,0,.1,0,.3.1.4.1.1.1.2.2.3s.2.2.3.2.2.1.4.1c.1,0,.3,0,.4-.1.1,0,.2-.1.3-.2.1-.1.2-.2.2-.3.1-.1.1-.2.1-.4,0-.1,0-.3-.1-.4,0-.1-.1-.2-.2-.3ZM122.3,128.6c0,.1-.1.2-.2.3s-.2.1-.2.2c-.1,0-.2.1-.3.1s-.2,0-.3-.1c-.1,0-.2-.1-.2-.2-.1-.1-.1-.2-.2-.3,0-.1-.1-.2-.1-.3s0-.2.1-.3c0-.1.1-.2.2-.3.1-.1.2-.1.2-.2.1,0,.2-.1.3-.1s.2,0,.3.1.2.1.2.2c.1.1.1.2.2.3s.1.2.1.3-.1.2-.1.3Z"/><path d="M121.9,128.3c.1,0,.1-.1.1-.2s0-.2-.1-.2c-.1-.1-.2-.1-.3-.1h-.4v1.1h.2v-.5h.2l.3.5h.2l-.3-.5s.1-.1.1-.1ZM121.6,128.3h-.2v-.3h.4l.1.1v.2l-.1.1h-.1c-.1-.2-.1-.1-.1-.1Z"/><polygon points="103.8 119.1 103.1 120.4 214.8 120.4 215.5 119.1 103.8 119.1" style="fill:#da291c;"/><polygon points="0 120.4 93.4 120.4 94.2 119.1 .7 119.1 0 120.4" style="fill:#da291c;"/></g></svg>